<?xml version="1.0" encoding="utf-8"?>
<!-- Generator: Adobe Illustrator 26.3.1, SVG Export Plug-In . SVG Version: 6.00 Build 0)  -->
<svg version="1.1" id="Слой_1" xmlns="http://www.w3.org/2000/svg" xmlns:xlink="http://www.w3.org/1999/xlink" x="0px" y="0px"
	 viewBox="0 0 500 500" style="enable-background:new 0 0 500 500;" xml:space="preserve">
<style type="text/css">
	.st0{fill:#1E2628;}
	.st1{fill:#0F0F0F;}
	.st2{fill:url(#SVGID_1_);}
	.st3{fill:#FFFFFF;}
</style>
<rect x="-0.2" y="-0.4" class="st0" width="500" height="500"/>
<path class="st1" d="M249.8,121.5c-70.6,0-128,57.4-128,128s57.4,128,128,128c70.6,0,128-57.4,128-128S320.4,121.5,249.8,121.5z
	 M249.8,373.6c-68.4,0-124-55.6-124-124s55.7-124,124-124s124,55.6,124,124S318.2,373.6,249.8,373.6z"/>
<linearGradient id="SVGID_1_" gradientUnits="userSpaceOnUse" x1="125.81" y1="249.56" x2="373.88" y2="249.56">
	<stop  offset="0" style="stop-color:#63C2CC"/>
	<stop  offset="1" style="stop-color:#E53D66"/>
</linearGradient>
<path class="st2" d="M249.8,125.5c-68.4,0-124,55.6-124,124s55.7,124,124,124s124-55.6,124-124S318.2,125.5,249.8,125.5z
	 M249.8,340.7c-50.3,0-91.2-40.9-91.2-91.2c0-50.3,40.9-91.2,91.2-91.2c50.3,0,91.2,40.9,91.2,91.2
	C341,299.8,300.1,340.7,249.8,340.7z"/>
<path class="st1" d="M249.8,158.4c-50.3,0-91.2,40.9-91.2,91.2c0,50.3,40.9,91.2,91.2,91.2c50.3,0,91.2-40.9,91.2-91.2
	C341,199.3,300.1,158.4,249.8,158.4z M281,254.3h-26.4v26.4h-8.4v-26.4h-26.4v-8.4h26.4v-26.4h8.4v26.4H281V254.3z"/>
<polygon class="st1" points="281,245.9 281,254.3 254.6,254.3 254.6,280.7 246.2,280.7 246.2,254.3 219.8,254.3 219.8,245.9 
	246.2,245.9 246.2,219.5 254.6,219.5 254.6,245.9 "/>
<polygon class="st3" points="281,245.9 281,254.3 254.6,254.3 254.6,280.7 246.2,280.7 246.2,254.3 219.8,254.3 219.8,245.9 
	246.2,245.9 246.2,219.5 254.6,219.5 254.6,245.9 "/>
</svg>
